<?xml version="1.0" encoding="utf-8"?>
<!-- Generator: Adobe Illustrator 25.2.3, SVG Export Plug-In . SVG Version: 6.00 Build 0)  -->
<svg version="1.1" id="Layer_1" xmlns="http://www.w3.org/2000/svg" xmlns:xlink="http://www.w3.org/1999/xlink" x="0px" y="0px"
	 viewBox="0 0 512 512" style="enable-background:new 0 0 512 512;" xml:space="preserve">
<g>
	<g>
		<path d="M29.4,212.3h453.1c5.9,0,10.7,4.8,10.7,10.7v66c0,5.9-4.8,10.7-10.7,10.7H29.4c-5.9,0-10.7-4.8-10.7-10.7v-66
			C18.7,217.1,23.5,212.3,29.4,212.3z"/>
	</g>
</g>
<g>
	<g>
		<path d="M0,346.5L0,346.5c0,70.7,57.3,128,128,128h256c70.7,0,128-57.3,128-128v0c0-5.2-4.2-9.4-9.4-9.4H9.4
			C4.2,337.2,0,341.4,0,346.5z"/>
	</g>
</g>
<g>
	<g>
		<path d="M384,37.5H128c-70.7,0-128,57.3-128,128v0c0,5.2,4.2,9.4,9.4,9.4h493.3c5.2,0,9.4-4.2,9.4-9.4v0
			C512,94.8,454.7,37.5,384,37.5z"/>
	</g>
</g>
</svg>
